<?xml version="1.0" standalone="no"?>
<!DOCTYPE svg PUBLIC "-//W3C//DTD SVG 20010904//EN"
 "http://www.w3.org/TR/2001/REC-SVG-20010904/DTD/svg10.dtd">
<svg version="1.0" xmlns="http://www.w3.org/2000/svg"
 width="1024.000000pt" height="1024.000000pt" viewBox="0 0 1024.000000 1024.000000"
 preserveAspectRatio="xMidYMid meet">
<metadata>
Created by potrace 1.14, written by Peter Selinger 2001-2017
</metadata>
<g transform="translate(0.000000,1024.000000) scale(0.100000,-0.100000)"
fill="#000000" stroke="none">
<path d="M0 5120 l0 -5120 5120 0 5120 0 0 5120 0 5120 -5120 0 -5120 0 0
-5120z m3762 385 l3 -514 308 269 308 270 132 0 c130 0 131 0 112 -19 -11 -11
-161 -143 -333 -294 -172 -152 -313 -278 -314 -282 0 -4 85 -88 189 -188 103
-100 259 -250 346 -334 l159 -153 -136 0 -136 0 -318 306 -317 305 -3 -305 -2
-306 -105 0 -105 0 0 880 0 880 105 0 105 0 2 -515z m-2038 -238 c143 -375
288 -755 322 -845 l62 -163 -120 3 -120 3 -75 213 -75 212 -383 0 -383 0 -57
-162 c-32 -90 -67 -187 -77 -215 l-19 -53 -121 0 c-110 0 -120 1 -113 18 3 9
148 389 322 845 l316 827 131 0 131 0 259 -683z m7952 151 c-3 -293 -9 -552
-12 -575 l-6 -43 -88 0 -89 0 -5 53 c-16 151 -26 444 -26 752 l0 345 116 0
116 0 -6 -532z m-6676 117 c41 -8 92 -21 113 -27 l37 -11 0 -100 c0 -91 -1
-98 -17 -91 -10 4 -56 21 -103 38 -81 29 -92 30 -245 31 -158 0 -161 0 -220
-30 -71 -36 -97 -74 -98 -144 -2 -106 48 -141 291 -202 294 -75 370 -117 434
-239 20 -38 23 -60 23 -145 0 -89 -3 -106 -28 -157 -31 -64 -100 -131 -169
-166 -26 -12 -84 -32 -130 -44 -142 -36 -388 -17 -588 45 l-45 14 -3 107 c-1
58 -1 106 1 106 2 0 33 -13 68 -29 220 -99 465 -116 597 -40 64 36 86 75 86
150 1 46 -4 62 -26 91 -39 51 -92 73 -293 123 -198 50 -264 76 -324 131 -95
85 -124 233 -75 377 34 100 152 189 296 222 80 18 313 13 418 -10z m3354 10
c112 -29 194 -97 243 -202 13 -29 26 -53 27 -53 1 0 17 22 34 49 38 58 130
145 181 170 66 33 134 46 236 46 87 0 107 -4 157 -27 109 -51 184 -145 224
-283 15 -52 18 -119 21 -522 l4 -463 -105 0 -105 0 -3 448 c-4 499 -6 511 -73
589 -46 54 -109 78 -196 77 -167 -3 -279 -95 -325 -267 -11 -40 -14 -141 -14
-449 l0 -398 -105 0 -105 0 0 413 c0 435 -6 500 -48 583 -42 81 -109 118 -217
117 -105 0 -168 -25 -236 -92 -38 -38 -63 -75 -80 -116 -24 -60 -24 -62 -27
-482 l-3 -423 -104 0 -105 0 0 635 0 635 105 0 105 0 0 -97 0 -96 28 39 c38
52 102 108 152 134 93 47 231 62 334 35z m2207 1 c190 -41 339 -186 395 -386
8 -30 18 -115 21 -187 l6 -133 -481 0 -481 0 6 -37 c24 -176 101 -295 231
-356 67 -32 68 -32 232 -32 164 0 166 0 265 36 55 19 117 43 138 52 l37 17 0
-99 0 -98 -93 -31 c-248 -83 -517 -82 -692 1 -226 109 -337 305 -336 598 0
186 36 308 127 436 131 183 380 270 625 219z m1119 -1141 l0 -145 -115 0 -115
0 0 138 c0 76 3 142 7 145 3 4 55 7 115 7 l108 0 0 -145z"/>
<path d="M1307 5654 c-84 -223 -277 -749 -277 -756 0 -4 137 -8 305 -8 168 0
305 2 305 4 0 2 -189 514 -300 810 -5 16 -13 5 -33 -50z"/>
<path d="M8289 5362 c-139 -46 -228 -154 -254 -309 l-7 -43 373 0 372 0 -6 53
c-13 127 -91 243 -194 289 -67 30 -207 35 -284 10z"/>
</g>
</svg>
